<svg width="13" height="13" viewBox="0 0 13 13" fill="none" xmlns="http://www.w3.org/2000/svg">
<path d="M11.9661 1.08032C11.722 0.836238 11.3263 0.836238 11.0822 1.08032L6.52319 5.63931L1.96422 1.08032C1.72015 0.836238 1.32441 0.836238 1.08034 1.08032C0.836258 1.32439 0.836258 1.72013 1.08034 1.9642L5.63931 6.52319L1.08035 11.0821C0.83627 11.3263 0.83627 11.7219 1.08035 11.9661C1.32443 12.2101 1.72016 12.2101 1.96423 11.9661L6.52319 7.40706L11.0822 11.9661C11.3263 12.2101 11.722 12.2101 11.9661 11.9661C12.2101 11.7219 12.2101 11.3263 11.9661 11.0822L7.40706 6.52319L11.9661 1.9642C12.2101 1.72013 12.2101 1.32439 11.9661 1.08032Z" fill="#0F0F0F"/>
</svg>
