<svg width="20" height="20" viewBox="0 0 20 20" fill="none" xmlns="http://www.w3.org/2000/svg">
<g clip-path="url(#clip0_2_179)">
<path fill-rule="evenodd" clip-rule="evenodd" d="M20 10C20 15.5228 15.5228 20 10 20C4.47715 20 0 15.5228 0 10C0 4.47715 4.47715 0 10 0C15.5228 0 20 4.47715 20 10ZM7.08333 7.08333H12.9167C13.607 7.08333 14.1667 6.52369 14.1667 5.83333C14.1667 5.14297 13.607 4.58333 12.9167 4.58333H7.08333C6.39297 4.58333 5.83333 5.14297 5.83333 5.83333C5.83333 6.52369 6.39297 7.08333 7.08333 7.08333ZM7.08333 11.25H12.9167C13.607 11.25 14.1667 10.6903 14.1667 10C14.1667 9.30967 13.607 8.75 12.9167 8.75H7.08333C6.39297 8.75 5.83333 9.30967 5.83333 10C5.83333 10.6903 6.39297 11.25 7.08333 11.25ZM7.08333 15.4167H12.9167C13.607 15.4167 14.1667 14.857 14.1667 14.1667C14.1667 13.4763 13.607 12.9167 12.9167 12.9167H7.08333C6.39297 12.9167 5.83333 13.4763 5.83333 14.1667C5.83333 14.857 6.39297 15.4167 7.08333 15.4167Z" fill="white"/>
</g>
<defs>
<clipPath id="clip0_2_179">
<rect width="20" height="20" fill="white"/>
</clipPath>
</defs>
</svg>
