<svg width="28" height="28" viewBox="0 0 28 28" fill="none" xmlns="http://www.w3.org/2000/svg">
<path fill-rule="evenodd" clip-rule="evenodd" d="M14 2.4375C7.61421 2.4375 2.4375 7.61421 2.4375 14C2.4375 20.3857 7.61421 25.5625 14 25.5625C20.3857 25.5625 25.5625 20.3857 25.5625 14C25.5625 7.61421 20.3857 2.4375 14 2.4375ZM0.5625 14C0.5625 6.57867 6.57867 0.5625 14 0.5625C21.4214 0.5625 27.4375 6.57867 27.4375 14C27.4375 21.4214 21.4214 27.4375 14 27.4375C6.57867 27.4375 0.5625 21.4214 0.5625 14ZM10.8478 8.0625H10.9022C11.17 8.06249 11.4161 8.06246 11.6227 8.07656C11.8449 8.09172 12.089 8.12624 12.3371 8.22901C12.8731 8.45104 13.299 8.87689 13.521 9.41287C13.6237 9.66101 13.6582 9.90519 13.6734 10.1272C13.6875 10.3339 13.6875 10.5799 13.6875 10.8478V17.1522C13.6875 17.42 13.6875 17.6661 13.6734 17.8727C13.6582 18.0949 13.6237 18.339 13.521 18.5871C13.299 19.1231 12.8731 19.549 12.3371 19.771C12.089 19.8737 11.8449 19.9082 11.6227 19.9234C11.4161 19.9375 11.17 19.9375 10.9022 19.9375H10.8478C10.5799 19.9375 10.3339 19.9375 10.1272 19.9234C9.90519 19.9082 9.66101 19.8737 9.41287 19.771C8.87689 19.549 8.45104 19.1231 8.22901 18.5871C8.12624 18.339 8.09172 18.0949 8.07656 17.8727C8.06246 17.6661 8.06249 17.42 8.0625 17.1522V10.8478C8.06249 10.5799 8.06246 10.3339 8.07656 10.1272C8.09172 9.90519 8.12624 9.66101 8.22901 9.41287C8.45104 8.87687 8.87687 8.45104 9.41287 8.22901C9.66101 8.12624 9.90519 8.09172 10.1272 8.07656C10.3339 8.06246 10.5799 8.06249 10.8478 8.0625ZM10.1266 9.96287C10.0531 9.99447 9.99447 10.0531 9.96287 10.1266C9.96055 10.1358 9.95292 10.1713 9.94722 10.2549C9.93801 10.3899 9.9375 10.571 9.9375 10.875V17.125C9.9375 17.429 9.93801 17.6101 9.94722 17.7451C9.95292 17.8286 9.96055 17.8641 9.96287 17.8734C9.99447 17.9469 10.0531 18.0055 10.1266 18.0371C10.1358 18.0395 10.1713 18.0471 10.2549 18.0527C10.3899 18.062 10.571 18.0625 10.875 18.0625C11.179 18.0625 11.3601 18.062 11.4951 18.0527C11.5786 18.0471 11.6141 18.0395 11.6234 18.0371C11.6969 18.0055 11.7555 17.9469 11.7871 17.8734C11.7895 17.8641 11.7971 17.8286 11.8027 17.7451C11.812 17.6101 11.8125 17.429 11.8125 17.125V10.875C11.8125 10.571 11.812 10.3899 11.8027 10.2549C11.7971 10.1713 11.7895 10.1358 11.7871 10.1266C11.7555 10.0531 11.6969 9.99447 11.6234 9.96287C11.6141 9.96054 11.5786 9.95291 11.4951 9.94722C11.3601 9.93801 11.179 9.9375 10.875 9.9375C10.571 9.9375 10.3899 9.93801 10.2549 9.94722C10.1713 9.95292 10.1358 9.96055 10.1266 9.96287ZM17.0977 8.0625H17.1522C17.42 8.06249 17.6661 8.06246 17.8727 8.07656C18.0949 8.09172 18.339 8.12624 18.5871 8.22901C19.1231 8.45104 19.549 8.87689 19.771 9.41287C19.8737 9.66101 19.9082 9.90519 19.9234 10.1272C19.9375 10.3339 19.9375 10.5799 19.9375 10.8478V17.1522C19.9375 17.42 19.9375 17.6661 19.9234 17.8727C19.9082 18.0949 19.8737 18.339 19.771 18.5871C19.549 19.1231 19.1231 19.549 18.5871 19.771C18.339 19.8737 18.0949 19.9082 17.8727 19.9234C17.6661 19.9375 17.42 19.9375 17.1522 19.9375H17.0977C16.83 19.9375 16.5839 19.9375 16.3772 19.9234C16.1551 19.9082 15.911 19.8737 15.6629 19.771C15.1269 19.549 14.701 19.1231 14.479 18.5871C14.3762 18.339 14.3417 18.0949 14.3266 17.8727C14.3125 17.6661 14.3125 17.42 14.3125 17.1522V10.8478C14.3125 10.5799 14.3125 10.3339 14.3266 10.1272C14.3417 9.90519 14.3762 9.66101 14.479 9.41287C14.701 8.87689 15.1269 8.45104 15.6629 8.22901C15.911 8.12624 16.1551 8.09172 16.3772 8.07656C16.5839 8.06246 16.83 8.06249 17.0977 8.0625ZM16.3766 9.96287C16.3031 9.99447 16.2445 10.0531 16.2129 10.1266C16.2105 10.1358 16.2029 10.1713 16.1972 10.2549C16.188 10.3899 16.1875 10.571 16.1875 10.875V17.125C16.1875 17.429 16.188 17.6101 16.1972 17.7451C16.2029 17.8286 16.2105 17.8641 16.2129 17.8734C16.2445 17.9469 16.3031 18.0055 16.3766 18.0371C16.3859 18.0395 16.4214 18.0471 16.5049 18.0527C16.6399 18.062 16.821 18.0625 17.125 18.0625C17.429 18.0625 17.6101 18.062 17.7451 18.0527C17.8286 18.0471 17.8641 18.0395 17.8734 18.0371C17.9469 18.0055 18.0055 17.9469 18.0371 17.8734C18.0395 17.8641 18.0471 17.8286 18.0527 17.7451C18.062 17.6101 18.0625 17.429 18.0625 17.125V10.875C18.0625 10.571 18.062 10.3899 18.0527 10.2549C18.0471 10.1713 18.0395 10.1358 18.0371 10.1266C18.0055 10.0531 17.9469 9.99447 17.8734 9.96287C17.8641 9.96055 17.8286 9.95292 17.7451 9.94722C17.6101 9.93801 17.429 9.9375 17.125 9.9375C16.821 9.9375 16.6399 9.93801 16.5049 9.94722C16.4214 9.95291 16.3859 9.96055 16.3766 9.96287Z" fill="white"/>
</svg>
