<svg width="20" height="20" viewBox="0 0 20 20" fill="none" xmlns="http://www.w3.org/2000/svg">
<g clip-path="url(#clip0_1_20)">
<path d="M15.1877 9.72467L7.85434 4.72467C7.752 4.65533 7.62 4.64767 7.51067 4.70533C7.40167 4.763 7.33334 4.87633 7.33334 5V15C7.33334 15.1237 7.40167 15.237 7.511 15.2947C7.55967 15.3207 7.61334 15.3333 7.66667 15.3333C7.73234 15.3333 7.798 15.3137 7.85434 15.2753L15.1877 10.2753C15.2787 10.2133 15.3333 10.1103 15.3333 10C15.3333 9.88967 15.2787 9.78667 15.1877 9.72467ZM8 14.369V5.631L14.4083 10L8 14.369Z" fill="white"/>
<path d="M10 0C4.486 0 0 4.486 0 10C0 15.514 4.486 20 10 20C15.514 20 20 15.514 20 10C20 4.486 15.514 0 10 0ZM10 19.3333C4.85367 19.3333 0.666667 15.1463 0.666667 10C0.666667 4.85367 4.85367 0.666667 10 0.666667C15.1463 0.666667 19.3333 4.85367 19.3333 10C19.3333 15.1463 15.1463 19.3333 10 19.3333Z" fill="white"/>
</g>
<defs>
<clipPath id="clip0_1_20">
<rect width="20" height="20" fill="white"/>
</clipPath>
</defs>
</svg>
