<svg width="10" height="10" viewBox="0 0 10 10" fill="none" xmlns="http://www.w3.org/2000/svg">
<g clip-path="url(#clip0_1_17)">
<path fill-rule="evenodd" clip-rule="evenodd" d="M2.61571 0.731458C2.1395 0.423946 1.59982 0.472617 1.19199 0.751546C0.789265 1.02699 0.520836 1.51878 0.520836 2.09707V7.903C0.520836 8.48129 0.789265 8.97308 1.19199 9.24854C1.59982 9.52746 2.1395 9.57612 2.61571 9.26862L7.11113 6.36562C7.59042 6.05612 7.8125 5.51425 7.8125 5.00004C7.8125 4.48579 7.59042 3.94393 7.11113 3.63442L2.61571 0.731458ZM1.14584 2.09707C1.14584 1.7132 1.32203 1.4198 1.54482 1.26743C1.76252 1.11853 2.02926 1.09675 2.27666 1.2565L6.77209 4.15946C7.03729 4.33075 7.1875 4.65154 7.1875 5.00004C7.1875 5.3485 7.03729 5.66933 6.77209 5.84058L2.27666 8.74358C2.02927 8.90333 1.76252 8.88154 1.54483 8.73262C1.32203 8.58025 1.14584 8.28687 1.14584 7.903V2.09707Z" fill="white"/>
<path d="M9.47916 2.08337C9.47916 1.91078 9.33925 1.77087 9.16666 1.77087C8.99408 1.77087 8.85416 1.91078 8.85416 2.08337V7.91671C8.85416 8.08929 8.99408 8.22921 9.16666 8.22921C9.33925 8.22921 9.47916 8.08929 9.47916 7.91671V2.08337Z" fill="white"/>
</g>
<defs>
<clipPath id="clip0_1_17">
<rect width="10" height="10" fill="white"/>
</clipPath>
</defs>
</svg>
