<svg width="10" height="10" viewBox="0 0 10 10" fill="none" xmlns="http://www.w3.org/2000/svg">
<g clip-path="url(#clip0_1_10)">
<path fill-rule="evenodd" clip-rule="evenodd" d="M8.80799 0.751546C9.21074 1.02699 9.47916 1.51878 9.47916 2.09707V7.903C9.47916 8.48129 9.21074 8.97308 8.80799 9.24854C8.40016 9.52746 7.86049 9.57612 7.38429 9.26862L2.88887 6.36562C2.40957 6.05612 2.18749 5.51425 2.18749 5.00004C2.18749 4.48579 2.40957 3.94393 2.88887 3.63442L7.38429 0.731458C7.86049 0.423946 8.40016 0.472617 8.80799 0.751546ZM8.45516 1.26743C8.23745 1.11853 7.97074 1.09675 7.72333 1.2565L3.22792 4.15946C2.96269 4.33075 2.81249 4.65154 2.81249 5.00004C2.81249 5.3485 2.96269 5.66933 3.22792 5.84058L7.72333 8.74358C7.97074 8.90333 8.23745 8.88154 8.45516 8.73262C8.67795 8.58025 8.85416 8.28687 8.85416 7.903V2.09707C8.85416 1.7132 8.67795 1.4198 8.45516 1.26743ZM0.833328 1.77087C1.00592 1.77087 1.14583 1.91078 1.14583 2.08337V7.91671C1.14583 8.08929 1.00592 8.22921 0.833328 8.22921C0.660741 8.22921 0.520828 8.08929 0.520828 7.91671V2.08337C0.520828 1.91078 0.660741 1.77087 0.833328 1.77087Z" fill="white"/>
</g>
<defs>
<clipPath id="clip0_1_10">
<rect width="10" height="10" fill="white"/>
</clipPath>
</defs>
</svg>
